<svg xmlns="http://www.w3.org/2000/svg" width="120.002" height="36.572" viewBox="0 0 120.002 36.572"><g transform="translate(-356.64 -129.786)"><g transform="translate(356.64 129.786)"><path d="M608.748,150.217a2.566,2.566,0,1,1,2.558,2.377,2.473,2.473,0,0,1-2.558-2.377m.422,0a2.133,2.133,0,1,0,2.124-1.98,2.063,2.063,0,0,0-2.124,1.98m3.307,1.28h-.583l-.382-.9c-.045-.086-.045-.1-.176-.1h-.453v1h-.5v-2.591c.392-.025.672-.037.949-.037.559,0,1.068.169,1.068.812a.724.724,0,0,1-.437.688c.208.369.5,1.1.511,1.128m-1.594-2.167v.73h.5c.307,0,.527-.085.527-.337,0-.321-.19-.406-.555-.406-.164,0-.31,0-.469.012" transform="translate(-493.865 -139.606)" fill="#686b71"/><rect width="3.119" height="16.02" transform="translate(85.592 3.821)" fill="#686b71"/><path d="M522.5,150.28c-1.336,0-2.206.512-2.206,1.916v2.473c0,1.541.49,2.519,2.161,2.519,2.1,0,2.386-1.871,2.386-3.587,0-1.761-.247-3.321-2.342-3.321m.67,9.227a2.868,2.868,0,0,1-2.764-1.358h-.045v5.665h-3.142V148.073h2.653l.2,1.316h.045a3.451,3.451,0,0,1,3.164-1.56c3.411,0,4.748,2.674,4.748,5.729,0,3.187-1.316,5.949-4.858,5.949" transform="translate(-444.044 -139.607)" fill="#686b71"/><path d="M585.953,160c-1.472,3.722-2.183,4.568-4.9,4.568a14.182,14.182,0,0,1-1.7-.109V161.85a10.582,10.582,0,0,0,1.249.065c1.2,0,1.494-.31,1.9-1.313l.513-1.27-4.391-10.967h3.408l2.587,7.734h.044l2.519-7.734h3.365Z" transform="translate(-477.466 -139.899)" fill="#686b71"/><path d="M564.99,156.631v-4.3c0-3.209-1.226-4.5-4.5-4.5a11.3,11.3,0,0,0-5.371,1.335l.98,2.143a8.534,8.534,0,0,1,4.1-1.16c1.135,0,1.649.334,1.649,1.382v.533c-2.786-.021-7,.358-7,4.057a3.285,3.285,0,0,0,3.611,3.412,5.9,5.9,0,0,0,3.721-1.324,1.026,1.026,0,0,0,.029.163c.341,1.076,2.193,1.152,3.592,1.076l.113-2.381c-.586-.019-.925-.093-.925-.435m-3.075-.108a4.355,4.355,0,0,1-2.543.89A1.383,1.383,0,0,1,557.9,155.9c0-2.027,2.541-2.051,4.014-2.051Z" transform="translate(-464.527 -139.608)" fill="#686b71"/><path d="M439.3,150.3c-1.961,0-2.564,1.183-2.564,3.368,0,2.227.625,3.455,2.586,3.455,1.918,0,2.541-1.2,2.541-3.455,0-2.185-.6-3.368-2.563-3.368m0,9.206c-3.877,0-5.751-2.364-5.751-5.838,0-3.254,1.673-5.841,5.751-5.841,3.768,0,5.727,2.23,5.727,5.841,0,3.455-1.827,5.838-5.727,5.838" transform="translate(-398.503 -139.607)" fill="#686b71"/><path d="M411.735,140.3v2.785h4.19v12.266h3.3V143.082h4.189V140.3Z" transform="translate(-386.629 -135.508)" fill="#686b71"/><path d="M466.831,153.615c-1.607.04-1.76-.166-1.771-1.12,0-.05,0-.1,0-.155v-4.995h2.585v-2.519h-2.585v-2.962h-3.1v2.962H460.11v2.519h1.83v5.327c0,2.7.736,3.543,3.766,3.543a19.124,19.124,0,0,0,1.938-.155v-2.5c-.231.023-.424.045-.812.055" transform="translate(-412.96 -136.361)" fill="#686b71"/><rect width="3.12" height="16.02" transform="translate(68.289 3.821)" fill="#686b71"/><path d="M489.591,156.631v-4.3c0-3.209-1.226-4.5-4.5-4.5a11.3,11.3,0,0,0-5.37,1.335l.979,2.143a8.542,8.542,0,0,1,4.1-1.16c1.136,0,1.649.334,1.649,1.382v.533c-2.784-.021-7,.358-7,4.057a3.285,3.285,0,0,0,3.61,3.412,5.9,5.9,0,0,0,3.722-1.324.865.865,0,0,0,.03.163c.339,1.076,2.191,1.152,3.589,1.076l.115-2.381c-.586-.019-.926-.093-.926-.435m-3.076-.108a4.356,4.356,0,0,1-2.542.89A1.381,1.381,0,0,1,482.5,155.9c0-2.027,2.54-2.051,4.011-2.051Z" transform="translate(-423.487 -139.608)" fill="#686b71"/><path d="M363.073,134.063a.482.482,0,0,0,0-.912l-5.642-3.258c-.435-.25-.791-.047-.791.456v6.514c0,.5.356.709.791.458Z" transform="translate(-356.64 -129.786)" fill="#e13a36"/><path d="M363.073,152.364a.482.482,0,0,0,0-.911l-5.642-3.259c-.435-.251-.791-.047-.791.456v6.514c0,.5.356.709.791.459Z" transform="translate(-356.64 -139.748)" fill="#e13a36"/><path d="M363.073,170.665a.482.482,0,0,0,0-.911l-5.642-3.258c-.435-.251-.791-.047-.791.456v6.515c0,.5.356.707.791.455Z" transform="translate(-356.64 -149.709)" fill="#e13a36"/><path d="M372.491,146.014c0,.5.356.709.791.458l5.641-3.259a.483.483,0,0,0,0-.913l-5.641-3.257c-.435-.252-.791-.046-.791.456Z" transform="translate(-365.268 -134.767)" fill="#e13a36"/><path d="M372.491,164.316c0,.5.356.707.791.457l5.641-3.258a.483.483,0,0,0,0-.913l-5.641-3.257c-.435-.251-.791-.046-.791.456Z" transform="translate(-365.268 -144.728)" fill="#e13a36"/><path d="M388.341,155.165c0,.5.356.709.79.458l5.642-3.259a.483.483,0,0,0,0-.913l-5.642-3.257c-.434-.252-.79-.046-.79.456Z" transform="translate(-373.895 -139.747)" fill="#e13a36"/><path d="M475.282,198.11h3.138v.65h-2.33v1.694h2.164v.635H476.09v1.71h2.5v.658h-3.312Z" transform="translate(-421.218 -166.976)" fill="#e13a36"/><path d="M485.885,198.11h1.1l1.687,4.749,1.892-4.749h1.058v5.347H490.8v-3.29l.031-.953-1.663,4.243h-1.052l-1.475-4.273.053.991v3.283h-.81Z" transform="translate(-426.989 -166.976)" fill="#e13a36"/><path d="M504.5,198.11h-1.838v5.347h.818V201.65h.625c1.507,0,2.224-.818,2.224-1.8a1.645,1.645,0,0,0-1.83-1.739m-.348,2.881h-.672v-2.232h.855c.8,0,1.148.387,1.148,1.121s-.5,1.111-1.331,1.111" transform="translate(-436.121 -166.976)" fill="#e13a36"/><path d="M516.308,202.6l-.876-1.218a2.839,2.839,0,0,1-.44.029h-.626v2.043h-.816V198.11h1.836c1.075,0,1.831.507,1.831,1.62a1.509,1.509,0,0,1-.967,1.458l.756,1.013a1.889,1.889,0,0,0,1.1.712l-.182.628a2.174,2.174,0,0,1-1.611-.937m-1.271-1.816c.809,0,1.331-.271,1.331-1.02,0-.734-.37-1.006-1.148-1.006h-.855v2.026Z" transform="translate(-442.047 -166.976)" fill="#e13a36"/><path d="M526.277,198.11h3.138v.65h-2.329v1.694h2.163v.635h-2.163v1.71h2.5v.658h-3.313Z" transform="translate(-448.975 -166.976)" fill="#e13a36"/><path d="M535.949,203.124l.251-.626a3.124,3.124,0,0,0,1.309.273c.611,0,1.186-.205,1.186-.789,0-1.2-2.594-.907-2.594-2.675,0-.917.8-1.348,1.68-1.348a3.161,3.161,0,0,1,1.405.288l-.226.59a3.262,3.262,0,0,0-1.158-.211c-.568,0-.923.219-.923.657,0,1.059,2.624.945,2.624,2.653,0,1.067-.923,1.529-1.981,1.529a3.074,3.074,0,0,1-1.573-.342" transform="translate(-454.24 -166.894)" fill="#e13a36"/><path d="M547.745,198.11h1.08l1.891,5.348h-.853l-.651-1.869h-2.027l-.727,1.869h-.816ZM549,200.963l-.74-2.309-.839,2.309Z" transform="translate(-459.515 -166.976)" fill="#e13a36"/><path d="M562.224,202.6l-.877-1.218a2.837,2.837,0,0,1-.439.029h-.627v2.043h-.818V198.11H561.3c1.074,0,1.83.507,1.83,1.62a1.511,1.511,0,0,1-.968,1.458l.756,1.013a1.889,1.889,0,0,0,1.1.712l-.183.628a2.171,2.171,0,0,1-1.61-.937m-1.27-1.816c.809,0,1.331-.271,1.331-1.02,0-.734-.37-1.006-1.15-1.006h-.854v2.026Z" transform="translate(-467.039 -166.976)" fill="#e13a36"/><rect width="0.811" height="5.345" transform="translate(98.224 31.134)" fill="#e13a36"/><path d="M578.809,198.11h1.082l1.89,5.348h-.855l-.649-1.869H578.25l-.727,1.869h-.817Zm1.255,2.853-.741-2.309-.839,2.309Z" transform="translate(-476.424 -166.976)" fill="#e13a36"/><path d="M590.529,198.11h.809v4.674h2.322v.673h-3.131Z" transform="translate(-483.949 -166.976)" fill="#e13a36"/></g></g></svg>