<svg xmlns="http://www.w3.org/2000/svg" xmlns:xlink="http://www.w3.org/1999/xlink" width="120.632" height="39.031" viewBox="0 0 120.632 39.031"><defs><linearGradient id="a" x1="0.014" y1="0.548" x2="7.085" y2="-0.146" gradientUnits="objectBoundingBox"><stop offset="0" stop-color="#00a187"/><stop offset="1" stop-color="#00dbc8"/></linearGradient><linearGradient id="b" x1="-1.255" y1="0.693" x2="6.755" y2="-0.174" xlink:href="#a"/><linearGradient id="c" x1="-2.209" y1="0.725" x2="5.421" y2="0.081" xlink:href="#a"/><linearGradient id="d" x1="-3.382" y1="0.937" x2="4.31" y2="0.071" xlink:href="#a"/><linearGradient id="e" x1="-4.83" y1="1.059" x2="3.503" y2="0.193" xlink:href="#a"/><linearGradient id="f" x1="-14.445" y1="0.95" x2="5.837" y2="0.347" xlink:href="#a"/><linearGradient id="g" x1="-5.939" y1="1.225" x2="1.753" y2="0.359" xlink:href="#a"/><linearGradient id="h" x1="-8.438" y1="1.336" x2="0.832" y2="0.47" xlink:href="#a"/></defs><path d="M16.542,17.43V34.816H12.493L4.819,25.552v9.264H0V17.43H4.048L11.723,26.7V17.43Z" transform="translate(0 -14.847)" fill="url(#a)"/><path d="M142.436,50.582h-9.78a2.731,2.731,0,0,0,1.156,1.6,3.837,3.837,0,0,0,2.147.559,4.656,4.656,0,0,0,1.677-.273,4.986,4.986,0,0,0,1.428-.889l2.484,2.583a7.319,7.319,0,0,1-5.738,2.186,9.208,9.208,0,0,1-4.149-.889,6.834,6.834,0,0,1-.15-12.12,8.483,8.483,0,0,1,7.448-.076,6.333,6.333,0,0,1,2.6,2.412,7.076,7.076,0,0,1,.956,3.737C142.51,49.449,142.487,49.837,142.436,50.582Zm-8.929-4.173a2.815,2.815,0,0,0-.931,1.689h5.514a2.815,2.815,0,0,0-.932-1.689A3,3,0,0,0,133.507,46.41Z" transform="translate(-108.956 -36.152)" fill="url(#b)"/><path d="M250.79,42.741v11a7.3,7.3,0,0,1-2.036,5.631,8.312,8.312,0,0,1-5.862,1.876,14.921,14.921,0,0,1-3.725-.445A8.821,8.821,0,0,1,236.2,59.49l1.714-3.3a6.05,6.05,0,0,0,2.075,1.057,8.4,8.4,0,0,0,2.472.384,3.881,3.881,0,0,0,2.732-.819,3.183,3.183,0,0,0,.868-2.433v-.445a4.989,4.989,0,0,1-4,1.59,6.913,6.913,0,0,1-3.3-.808,6.138,6.138,0,0,1-2.409-2.285,6.943,6.943,0,0,1,0-6.8,6.158,6.158,0,0,1,2.409-2.285,6.911,6.911,0,0,1,3.3-.806,4.848,4.848,0,0,1,4.222,1.863v-1.66Zm-5.5,8.246a2.787,2.787,0,0,0,.013-3.961,3.334,3.334,0,0,0-4.235,0,2.761,2.761,0,0,0,.012,3.961,3.013,3.013,0,0,0,2.112.771A2.964,2.964,0,0,0,245.288,50.988Z" transform="translate(-200.57 -36.235)" fill="url(#c)"/><path d="M357.328,55.423a6.825,6.825,0,0,1-.016-12.132,9.146,9.146,0,0,1,7.836,0,6.6,6.6,0,0,1,2.712,2.466,6.816,6.816,0,0,1-2.707,9.673,9,9,0,0,1-7.824,0Zm5.936-3.7a3.352,3.352,0,0,0,.8-2.371,3.267,3.267,0,0,0-.8-2.335,2.878,2.878,0,0,0-4.074,0,3.283,3.283,0,0,0-.794,2.335,3.349,3.349,0,0,0,.794,2.371,2.85,2.85,0,0,0,4.074,0Z" transform="translate(-301.222 -36.126)" fill="url(#d)"/><path d="M469.007,55.374a6.618,6.618,0,0,1-3.725-6.084,6.545,6.545,0,0,1,3.725-6.047,8.812,8.812,0,0,1,4-.889,7.638,7.638,0,0,1,3.949.981,5.429,5.429,0,0,1,2.359,2.727l-3.653,1.87a2.9,2.9,0,0,0-2.682-1.814,2.83,2.83,0,0,0-2.1.845,3.185,3.185,0,0,0-.831,2.335,3.258,3.258,0,0,0,.831,2.371,2.807,2.807,0,0,0,2.1.857,2.9,2.9,0,0,0,2.682-1.814l3.653,1.857a5.427,5.427,0,0,1-2.361,2.721,7.652,7.652,0,0,1-3.949.981A8.7,8.7,0,0,1,469.007,55.374Z" transform="translate(-396.334 -36.076)" fill="url(#e)"/><path d="M569.324,4.3a2.316,2.316,0,0,1-.8-1.789,2.316,2.316,0,0,1,.8-1.789A2.991,2.991,0,0,1,571.413,0,3.08,3.08,0,0,1,573.5.683a2.206,2.206,0,0,1,.794,1.752,2.409,2.409,0,0,1-.794,1.849,2.957,2.957,0,0,1-2.086.733A3,3,0,0,1,569.324,4.3Zm-.274,2.209h4.72V19.969h-4.72Z" transform="translate(-484.282)" fill="url(#f)"/><path d="M622.489,55.375a6.825,6.825,0,0,1-.015-12.132,8.464,8.464,0,0,1,3.911-.889,8.552,8.552,0,0,1,3.925.889,6.6,6.6,0,0,1,2.71,2.466,7.162,7.162,0,0,1,0,7.19,6.654,6.654,0,0,1-2.707,2.484,9,9,0,0,1-7.824,0Zm5.936-3.7a3.366,3.366,0,0,0,.794-2.371,3.271,3.271,0,0,0-.794-2.335,2.878,2.878,0,0,0-4.074,0,3.241,3.241,0,0,0-.794,2.326,3.349,3.349,0,0,0,.794,2.371,2.85,2.85,0,0,0,4.074,0Z" transform="translate(-527.09 -36.077)" fill="url(#g)"/><path d="M731.563,55.933a8.756,8.756,0,0,1-2.633-1.006l1.417-3.229a7.993,7.993,0,0,0,2.186.907,9.762,9.762,0,0,0,2.509.335,4.055,4.055,0,0,0,1.63-.236.731.731,0,0,0,.484-.683c0-.3-.194-.51-.584-.633a11.961,11.961,0,0,0-1.852-.36,18.4,18.4,0,0,1-2.744-.522,4.222,4.222,0,0,1-1.95-1.185,3.406,3.406,0,0,1-.819-2.433,3.685,3.685,0,0,1,.772-2.306,5.114,5.114,0,0,1,2.248-1.59,9.549,9.549,0,0,1,3.531-.582,14.316,14.316,0,0,1,2.906.3,8.348,8.348,0,0,1,2.409.845l-1.417,3.2a7.853,7.853,0,0,0-3.87-1,3.867,3.867,0,0,0-1.639.261.78.78,0,0,0-.522.683c0,.316.19.535.572.658a12.938,12.938,0,0,0,1.888.385,20.97,20.97,0,0,1,2.756.572,4.2,4.2,0,0,1,1.9,1.185,3.352,3.352,0,0,1,.808,2.4,3.64,3.64,0,0,1-.771,2.273,4.988,4.988,0,0,1-2.272,1.577,10.264,10.264,0,0,1-3.614.572,14.52,14.52,0,0,1-3.327-.387Z" transform="translate(-620.915 -36.125)" fill="url(#h)"/><g transform="translate(64.283 27.248)"><rect width="1.491" height="7.652" transform="translate(40.881 1.825)" fill="#5a5a5a"/><path d="M672.184,211.578c-.639,0-1.055.245-1.055.916v1.185c0,.741.236,1.2,1.037,1.2,1,0,1.14-.889,1.14-1.713s-.119-1.59-1.117-1.59m.314,4.4a1.378,1.378,0,0,1-1.325-.651h-.022v2.706h-1.5v-7.513h1.267l.1.628h.021a1.648,1.648,0,0,1,1.511-.741c1.63,0,2.267,1.279,2.267,2.737,0,1.522-.628,2.844-2.32,2.844" transform="translate(-634.711 -206.479)" fill="#5a5a5a"/><path d="M763.326,216.727c-.7,1.778-1.037,2.183-2.341,2.183a7.063,7.063,0,0,1-.81-.052v-1.246a5.016,5.016,0,0,0,.593.031c.574,0,.713-.148.9-.627l.247-.608-2.1-5.238h1.63l1.242,3.7h.022l1.2-3.7h1.606Z" transform="translate(-711.511 -207.127)" fill="#5a5a5a"/><path d="M729.774,214.585v-2.054c0-1.534-.593-2.152-2.149-2.152a5.4,5.4,0,0,0-2.567.639l.468,1.022a4.081,4.081,0,0,1,1.959-.548c.542,0,.787.159.787.662v.253c-1.334-.009-3.343.173-3.343,1.938a1.568,1.568,0,0,0,1.725,1.63,2.823,2.823,0,0,0,1.778-.639.327.327,0,0,0,.013.079c.163.514,1.048.548,1.716.514l.055-1.138c-.282-.009-.445-.044-.445-.207m-1.469-.052a2.082,2.082,0,0,1-1.214.425.66.66,0,0,1-.7-.725c0-.968,1.212-.978,1.916-.978Z" transform="translate(-681.791 -206.454)" fill="#5a5a5a"/><path d="M549.567,211.622c-.938,0-1.225.565-1.225,1.608s.3,1.651,1.234,1.651,1.214-.575,1.214-1.651c0-1.037-.3-1.608-1.223-1.608m0,4.4a2.786,2.786,0,1,1,2.735-2.786,2.519,2.519,0,0,1-2.735,2.786" transform="translate(-530.074 -206.514)" fill="#5a5a5a"/><path d="M514.74,199.32v1.331h2v5.859h1.575v-5.859h2V199.32Z" transform="translate(-502.748 -197.033)" fill="#5a5a5a"/><path d="M588.977,207.233c-.765.019-.839-.08-.845-.531v-2.464h1.243v-1.2h-1.234V201.62h-1.482v1.415h-.889v1.2h.873v2.546c0,1.286.351,1.691,1.8,1.691a8.864,8.864,0,0,0,.928-.074v-1.185a3.624,3.624,0,0,1-.39.025" transform="translate(-563.252 -198.992)" fill="#5a5a5a"/><rect width="1.491" height="7.652" transform="translate(32.616 1.825)" fill="#5a5a5a"/><path d="M619.043,214.585v-2.054c0-1.534-.593-2.152-2.15-2.152a5.394,5.394,0,0,0-2.565.639l.467,1.022a4.081,4.081,0,0,1,1.959-.548c.544,0,.788.159.788.662v.253c-1.334-.009-3.342.173-3.342,1.938a1.566,1.566,0,0,0,1.723,1.63,2.825,2.825,0,0,0,1.778-.639.368.368,0,0,0,.013.079c.162.514,1.048.548,1.715.514l.053-1.138c-.279-.009-.445-.044-.445-.207m-1.473-.052a2.075,2.075,0,0,1-1.212.425.658.658,0,0,1-.7-.725c0-.968,1.214-.978,1.916-.978Z" transform="translate(-587.469 -206.454)" fill="#5a5a5a"/><path d="M436.883,185.928a.231.231,0,0,0,0-.436l-2.7-1.556c-.207-.12-.378-.021-.378.213v3.112c0,.24.17.338.378.219Z" transform="translate(-433.81 -183.885)" fill="#5a5a5a"/><path d="M436.883,212.806a.231.231,0,0,0,0-.436l-2.7-1.556c-.207-.12-.378-.022-.378.216v3.112c0,.24.17.339.378.218Z" transform="translate(-433.81 -206.781)" fill="#5a5a5a"/><path d="M436.883,239.695a.231.231,0,0,0,0-.436l-2.7-1.556c-.207-.12-.378-.024-.378.216v3.112c0,.239.17.338.378.216Z" transform="translate(-433.81 -229.684)" fill="#5a5a5a"/><path d="M457.08,200.707c0,.242.17.341.378.219l2.7-1.556a.23.23,0,0,0,0-.436l-2.7-1.556c-.209-.119-.378-.022-.378.218Z" transform="translate(-453.632 -195.336)" fill="#5a5a5a"/><path d="M457.08,227.565c0,.24.17.339.378.219l2.7-1.556a.231.231,0,0,0,0-.437l-2.7-1.556c-.209-.12-.378-.022-.378.218Z" transform="translate(-453.632 -218.212)" fill="#5a5a5a"/><path d="M480.35,214.145c0,.24.169.339.378.218l2.7-1.556a.23.23,0,0,0,0-.436l-2.7-1.556c-.208-.12-.378-.022-.378.218Z" transform="translate(-473.454 -206.781)" fill="#5a5a5a"/></g></svg>